<svg xmlns="http://www.w3.org/2000/svg" width="58" height="58" viewBox="0 0 58 58"><g><g><path fill="#add136" d="M57.033 17.397a.965.965 0 0 1-.966-.965V3.452l-10.781 10.78a25.613 25.613 0 0 1 2.302 2.905l.018-.019c.149.216.28.446.423.666l.105.166a25.942 25.942 0 0 1 4.063 13.943c0 14.418-11.685 26.106-26.099 26.106C11.685 57.999 0 46.31 0 31.893 0 17.476 11.685 5.789 26.098 5.789a25.977 25.977 0 0 1 14.725 4.556l-1.38 1.381A24.093 24.093 0 0 0 26.097 7.72c-13.383 0-24.164 10.785-24.164 24.173 0 .347.038.686.052 1.032l12.025-12.026a.967.967 0 0 1 1.367 0L25.631 31.15l29.22-29.22H41.568a.967.967 0 0 1 0-1.932h15.466c.534 0 .967.432.967.966v15.467a.965.965 0 0 1-.967.965z"/></g></g></svg>